<mxfile host="65bd71144e" pages="2">
    <diagram name="Page-1" id="7e0a89b8-554c-2b80-1dc8-d5c74ca68de4">
        <mxGraphModel dx="511" dy="594" grid="1" gridSize="10" guides="1" tooltips="1" connect="1" arrows="1" fold="1" page="1" pageScale="1" pageWidth="1100" pageHeight="850" background="none" math="0" shadow="0">
            <root>
                <mxCell id="0"/>
                <mxCell id="1" parent="0"/>
                <mxCell id="BsbLC-XJVURWqmNlItD3-97" value="REC BMS" style="rounded=0;whiteSpace=wrap;html=1;dashed=1;align=left;verticalAlign=bottom;" parent="1" vertex="1">
                    <mxGeometry x="32" y="202" width="148" height="175" as="geometry"/>
                </mxCell>
                <mxCell id="BsbLC-XJVURWqmNlItD3-62" value="" style="group" parent="1" vertex="1" connectable="0">
                    <mxGeometry x="170" y="440" width="400" height="280" as="geometry"/>
                </mxCell>
                <mxCell id="BsbLC-XJVURWqmNlItD3-60" value="&lt;p style=&quot;box-sizing: border-box ; padding: 0px ; margin: 0px ; font-weight: 400 ; color: rgb(15 , 17 , 17) ; font-family: &amp;#34;amazon ember&amp;#34; , &amp;#34;arial&amp;#34; , sans-serif ; background-color: rgb(255 , 255 , 255) ; line-height: 32px&quot;&gt;&lt;span id=&quot;productTitle&quot; class=&quot;a-size-large product-title-word-break&quot; style=&quot;box-sizing: border-box ; word-break: break-word ; line-height: 32px&quot;&gt;&lt;font style=&quot;font-size: 12px&quot;&gt;Icstation 12V Optocoupler&lt;/font&gt;&lt;/span&gt;&lt;/p&gt;" style="rounded=0;whiteSpace=wrap;html=1;dashed=1;align=right;verticalAlign=bottom;" parent="BsbLC-XJVURWqmNlItD3-62" vertex="1">
                    <mxGeometry width="400" height="280" as="geometry"/>
                </mxCell>
                <mxCell id="BsbLC-XJVURWqmNlItD3-2" value="" style="verticalLabelPosition=bottom;shadow=0;dashed=0;align=center;html=1;verticalAlign=top;shape=mxgraph.electrical.opto_electronics.opto-coupler;" parent="BsbLC-XJVURWqmNlItD3-62" vertex="1">
                    <mxGeometry x="153" y="100" width="99" height="60" as="geometry"/>
                </mxCell>
                <mxCell id="BsbLC-XJVURWqmNlItD3-15" value="1KOhm" style="pointerEvents=1;verticalLabelPosition=bottom;shadow=0;dashed=0;align=center;html=1;verticalAlign=top;shape=mxgraph.electrical.resistors.resistor_1;rotation=0;" parent="BsbLC-XJVURWqmNlItD3-62" vertex="1">
                    <mxGeometry x="20" y="210" width="100" height="20" as="geometry"/>
                </mxCell>
                <mxCell id="BsbLC-XJVURWqmNlItD3-33" style="edgeStyle=orthogonalEdgeStyle;rounded=0;orthogonalLoop=1;jettySize=auto;html=1;exitX=0.195;exitY=1;exitDx=0;exitDy=0;exitPerimeter=0;entryX=1;entryY=0.5;entryDx=0;entryDy=0;entryPerimeter=0;endArrow=none;endFill=0;" parent="BsbLC-XJVURWqmNlItD3-62" source="BsbLC-XJVURWqmNlItD3-2" target="BsbLC-XJVURWqmNlItD3-15" edge="1">
                    <mxGeometry relative="1" as="geometry"/>
                </mxCell>
                <mxCell id="BsbLC-XJVURWqmNlItD3-58" style="edgeStyle=orthogonalEdgeStyle;rounded=0;orthogonalLoop=1;jettySize=auto;html=1;exitX=0;exitY=0.5;exitDx=0;exitDy=0;exitPerimeter=0;entryX=0.8;entryY=0;entryDx=0;entryDy=0;entryPerimeter=0;endArrow=none;endFill=0;" parent="BsbLC-XJVURWqmNlItD3-62" source="BsbLC-XJVURWqmNlItD3-57" target="BsbLC-XJVURWqmNlItD3-2" edge="1">
                    <mxGeometry relative="1" as="geometry"/>
                </mxCell>
                <mxCell id="BsbLC-XJVURWqmNlItD3-57" value="10KOhm" style="pointerEvents=1;verticalLabelPosition=bottom;shadow=0;dashed=0;align=center;html=1;verticalAlign=top;shape=mxgraph.electrical.resistors.resistor_1;rotation=0;" parent="BsbLC-XJVURWqmNlItD3-62" vertex="1">
                    <mxGeometry x="252" y="10" width="100" height="20" as="geometry"/>
                </mxCell>
                <mxCell id="BsbLC-XJVURWqmNlItD3-1" value="" style="verticalLabelPosition=bottom;shadow=0;dashed=0;align=center;html=1;verticalAlign=top;shape=mxgraph.electrical.opto_electronics.opto-coupler;" parent="1" vertex="1">
                    <mxGeometry x="50" y="265" width="99" height="60" as="geometry"/>
                </mxCell>
                <mxCell id="BsbLC-XJVURWqmNlItD3-28" style="edgeStyle=orthogonalEdgeStyle;rounded=0;orthogonalLoop=1;jettySize=auto;html=1;exitX=0.8;exitY=1;exitDx=0;exitDy=0;exitPerimeter=0;entryX=0.195;entryY=0;entryDx=0;entryDy=0;entryPerimeter=0;endArrow=none;endFill=0;" parent="1" source="BsbLC-XJVURWqmNlItD3-1" target="BsbLC-XJVURWqmNlItD3-2" edge="1">
                    <mxGeometry relative="1" as="geometry">
                        <Array as="points">
                            <mxPoint x="129" y="470"/>
                            <mxPoint x="342" y="470"/>
                        </Array>
                    </mxGeometry>
                </mxCell>
                <mxCell id="BsbLC-XJVURWqmNlItD3-89" value="CE" style="edgeLabel;html=1;align=center;verticalAlign=middle;resizable=0;points=[];" parent="BsbLC-XJVURWqmNlItD3-28" vertex="1" connectable="0">
                    <mxGeometry x="-0.8329" y="2" relative="1" as="geometry">
                        <mxPoint as="offset"/>
                    </mxGeometry>
                </mxCell>
                <mxCell id="BsbLC-XJVURWqmNlItD3-47" style="edgeStyle=orthogonalEdgeStyle;rounded=0;orthogonalLoop=1;jettySize=auto;html=1;exitX=0.8;exitY=1;exitDx=0;exitDy=0;exitPerimeter=0;entryX=0;entryY=0.5;entryDx=0;entryDy=0;endArrow=none;endFill=0;" parent="1" source="BsbLC-XJVURWqmNlItD3-2" target="BsbLC-XJVURWqmNlItD3-8" edge="1">
                    <mxGeometry relative="1" as="geometry"/>
                </mxCell>
                <mxCell id="BsbLC-XJVURWqmNlItD3-6" value="MPPT" style="swimlane;fontStyle=0;childLayout=stackLayout;horizontal=1;startSize=30;horizontalStack=0;resizeParent=1;resizeParentMax=0;resizeLast=0;collapsible=1;marginBottom=0;" parent="1" vertex="1">
                    <mxGeometry x="700" y="510" width="190" height="90" as="geometry">
                        <mxRectangle x="580" y="260" width="50" height="30" as="alternateBounds"/>
                    </mxGeometry>
                </mxCell>
                <mxCell id="BsbLC-XJVURWqmNlItD3-7" value="REMOTE H" style="text;strokeColor=none;fillColor=none;align=left;verticalAlign=middle;spacingLeft=4;spacingRight=4;overflow=hidden;points=[[0,0.5],[1,0.5]];portConstraint=eastwest;rotatable=0;" parent="BsbLC-XJVURWqmNlItD3-6" vertex="1">
                    <mxGeometry y="30" width="190" height="30" as="geometry"/>
                </mxCell>
                <mxCell id="BsbLC-XJVURWqmNlItD3-8" value="REMOTE L" style="text;strokeColor=none;fillColor=none;align=left;verticalAlign=middle;spacingLeft=4;spacingRight=4;overflow=hidden;points=[[0,0.5],[1,0.5]];portConstraint=eastwest;rotatable=0;" parent="BsbLC-XJVURWqmNlItD3-6" vertex="1">
                    <mxGeometry y="60" width="190" height="30" as="geometry"/>
                </mxCell>
                <mxCell id="BsbLC-XJVURWqmNlItD3-56" style="edgeStyle=orthogonalEdgeStyle;rounded=0;orthogonalLoop=1;jettySize=auto;html=1;exitX=0.5;exitY=0;exitDx=0;exitDy=0;exitPerimeter=0;entryX=0.8;entryY=0;entryDx=0;entryDy=0;entryPerimeter=0;endArrow=none;endFill=0;" parent="1" source="BsbLC-XJVURWqmNlItD3-12" target="BsbLC-XJVURWqmNlItD3-1" edge="1">
                    <mxGeometry relative="1" as="geometry"/>
                </mxCell>
                <mxCell id="BsbLC-XJVURWqmNlItD3-88" value="CE+" style="edgeLabel;html=1;align=center;verticalAlign=middle;resizable=0;points=[];" parent="BsbLC-XJVURWqmNlItD3-56" vertex="1" connectable="0">
                    <mxGeometry x="0.494" relative="1" as="geometry">
                        <mxPoint as="offset"/>
                    </mxGeometry>
                </mxCell>
                <mxCell id="BsbLC-XJVURWqmNlItD3-12" value="V&lt;span style=&quot;font-size: 20px&quot;&gt;cc (~28.8V)&lt;/span&gt;" style="verticalLabelPosition=top;verticalAlign=bottom;shape=mxgraph.electrical.signal_sources.vdd;shadow=0;dashed=0;align=center;strokeWidth=1;fontSize=24;html=1;flipV=1;" parent="1" vertex="1">
                    <mxGeometry x="99" y="120" width="60" height="40" as="geometry"/>
                </mxCell>
                <mxCell id="BsbLC-XJVURWqmNlItD3-46" style="edgeStyle=orthogonalEdgeStyle;rounded=0;orthogonalLoop=1;jettySize=auto;html=1;exitX=0;exitY=0.5;exitDx=0;exitDy=0;entryX=0.8;entryY=0;entryDx=0;entryDy=0;entryPerimeter=0;endArrow=none;endFill=0;" parent="1" source="BsbLC-XJVURWqmNlItD3-7" target="BsbLC-XJVURWqmNlItD3-2" edge="1">
                    <mxGeometry relative="1" as="geometry"/>
                </mxCell>
                <mxCell id="BsbLC-XJVURWqmNlItD3-48" value="Multiplus" style="swimlane;fontStyle=0;childLayout=stackLayout;horizontal=1;startSize=30;horizontalStack=0;resizeParent=1;resizeParentMax=0;resizeLast=0;collapsible=1;marginBottom=0;" parent="1" vertex="1">
                    <mxGeometry x="700" y="790" width="190" height="90" as="geometry">
                        <mxRectangle x="580" y="260" width="50" height="30" as="alternateBounds"/>
                    </mxGeometry>
                </mxCell>
                <mxCell id="BsbLC-XJVURWqmNlItD3-49" value="AUX +" style="text;strokeColor=none;fillColor=none;align=left;verticalAlign=middle;spacingLeft=4;spacingRight=4;overflow=hidden;points=[[0,0.5],[1,0.5]];portConstraint=eastwest;rotatable=0;" parent="BsbLC-XJVURWqmNlItD3-48" vertex="1">
                    <mxGeometry y="30" width="190" height="30" as="geometry"/>
                </mxCell>
                <mxCell id="BsbLC-XJVURWqmNlItD3-50" value="AUX -" style="text;strokeColor=none;fillColor=none;align=left;verticalAlign=middle;spacingLeft=4;spacingRight=4;overflow=hidden;points=[[0,0.5],[1,0.5]];portConstraint=eastwest;rotatable=0;" parent="BsbLC-XJVURWqmNlItD3-48" vertex="1">
                    <mxGeometry y="60" width="190" height="30" as="geometry"/>
                </mxCell>
                <mxCell id="BsbLC-XJVURWqmNlItD3-53" value="Wakespeed" style="swimlane;fontStyle=0;childLayout=stackLayout;horizontal=1;startSize=30;horizontalStack=0;resizeParent=1;resizeParentMax=0;resizeLast=0;collapsible=1;marginBottom=0;" parent="1" vertex="1">
                    <mxGeometry x="700" y="1090" width="190" height="60" as="geometry">
                        <mxRectangle x="580" y="260" width="50" height="30" as="alternateBounds"/>
                    </mxGeometry>
                </mxCell>
                <mxCell id="BsbLC-XJVURWqmNlItD3-54" value="FEATURE IN" style="text;strokeColor=none;fillColor=none;align=left;verticalAlign=middle;spacingLeft=4;spacingRight=4;overflow=hidden;points=[[0,0.5],[1,0.5]];portConstraint=eastwest;rotatable=0;" parent="BsbLC-XJVURWqmNlItD3-53" vertex="1">
                    <mxGeometry y="30" width="190" height="30" as="geometry"/>
                </mxCell>
                <mxCell id="BsbLC-XJVURWqmNlItD3-63" value="" style="group" parent="1" vertex="1" connectable="0">
                    <mxGeometry x="170" y="720" width="400" height="280" as="geometry"/>
                </mxCell>
                <mxCell id="BsbLC-XJVURWqmNlItD3-64" value="&lt;span style=&quot;color: rgb(15 , 17 , 17) ; font-family: &amp;#34;amazon ember&amp;#34; , &amp;#34;arial&amp;#34; , sans-serif ; background-color: rgb(255 , 255 , 255)&quot;&gt;Icstation 12V Optocoupler&lt;/span&gt;" style="rounded=0;whiteSpace=wrap;html=1;dashed=1;align=right;verticalAlign=bottom;" parent="BsbLC-XJVURWqmNlItD3-63" vertex="1">
                    <mxGeometry width="400" height="280" as="geometry"/>
                </mxCell>
                <mxCell id="BsbLC-XJVURWqmNlItD3-65" value="" style="verticalLabelPosition=bottom;shadow=0;dashed=0;align=center;html=1;verticalAlign=top;shape=mxgraph.electrical.opto_electronics.opto-coupler;" parent="BsbLC-XJVURWqmNlItD3-63" vertex="1">
                    <mxGeometry x="153" y="100" width="99" height="60" as="geometry"/>
                </mxCell>
                <mxCell id="BsbLC-XJVURWqmNlItD3-66" value="1KOhm" style="pointerEvents=1;verticalLabelPosition=bottom;shadow=0;dashed=0;align=center;html=1;verticalAlign=top;shape=mxgraph.electrical.resistors.resistor_1;rotation=0;" parent="BsbLC-XJVURWqmNlItD3-63" vertex="1">
                    <mxGeometry x="20" y="210" width="100" height="20" as="geometry"/>
                </mxCell>
                <mxCell id="BsbLC-XJVURWqmNlItD3-67" style="edgeStyle=orthogonalEdgeStyle;rounded=0;orthogonalLoop=1;jettySize=auto;html=1;exitX=0.195;exitY=1;exitDx=0;exitDy=0;exitPerimeter=0;entryX=1;entryY=0.5;entryDx=0;entryDy=0;entryPerimeter=0;endArrow=none;endFill=0;" parent="BsbLC-XJVURWqmNlItD3-63" source="BsbLC-XJVURWqmNlItD3-65" target="BsbLC-XJVURWqmNlItD3-66" edge="1">
                    <mxGeometry relative="1" as="geometry"/>
                </mxCell>
                <mxCell id="BsbLC-XJVURWqmNlItD3-68" style="edgeStyle=orthogonalEdgeStyle;rounded=0;orthogonalLoop=1;jettySize=auto;html=1;exitX=0;exitY=0.5;exitDx=0;exitDy=0;exitPerimeter=0;entryX=0.8;entryY=0;entryDx=0;entryDy=0;entryPerimeter=0;endArrow=none;endFill=0;" parent="BsbLC-XJVURWqmNlItD3-63" source="BsbLC-XJVURWqmNlItD3-69" target="BsbLC-XJVURWqmNlItD3-65" edge="1">
                    <mxGeometry relative="1" as="geometry"/>
                </mxCell>
                <mxCell id="BsbLC-XJVURWqmNlItD3-69" value="10KOhm" style="pointerEvents=1;verticalLabelPosition=bottom;shadow=0;dashed=0;align=center;html=1;verticalAlign=top;shape=mxgraph.electrical.resistors.resistor_1;rotation=0;" parent="BsbLC-XJVURWqmNlItD3-63" vertex="1">
                    <mxGeometry x="252" y="10" width="100" height="20" as="geometry"/>
                </mxCell>
                <mxCell id="BsbLC-XJVURWqmNlItD3-70" value="" style="group" parent="1" vertex="1" connectable="0">
                    <mxGeometry x="170" y="1000" width="400" height="280" as="geometry"/>
                </mxCell>
                <mxCell id="BsbLC-XJVURWqmNlItD3-71" value="&lt;span style=&quot;color: rgb(15 , 17 , 17) ; font-family: &amp;#34;amazon ember&amp;#34; , &amp;#34;arial&amp;#34; , sans-serif ; background-color: rgb(255 , 255 , 255)&quot;&gt;Icstation 12V Optocoupler&lt;/span&gt;" style="rounded=0;whiteSpace=wrap;html=1;dashed=1;align=right;verticalAlign=bottom;" parent="BsbLC-XJVURWqmNlItD3-70" vertex="1">
                    <mxGeometry width="400" height="280" as="geometry"/>
                </mxCell>
                <mxCell id="BsbLC-XJVURWqmNlItD3-72" value="" style="verticalLabelPosition=bottom;shadow=0;dashed=0;align=center;html=1;verticalAlign=top;shape=mxgraph.electrical.opto_electronics.opto-coupler;" parent="BsbLC-XJVURWqmNlItD3-70" vertex="1">
                    <mxGeometry x="153" y="100" width="99" height="60" as="geometry"/>
                </mxCell>
                <mxCell id="BsbLC-XJVURWqmNlItD3-73" value="1KOhm" style="pointerEvents=1;verticalLabelPosition=bottom;shadow=0;dashed=0;align=center;html=1;verticalAlign=top;shape=mxgraph.electrical.resistors.resistor_1;rotation=0;" parent="BsbLC-XJVURWqmNlItD3-70" vertex="1">
                    <mxGeometry x="20" y="210" width="100" height="20" as="geometry"/>
                </mxCell>
                <mxCell id="BsbLC-XJVURWqmNlItD3-74" style="edgeStyle=orthogonalEdgeStyle;rounded=0;orthogonalLoop=1;jettySize=auto;html=1;exitX=0.195;exitY=1;exitDx=0;exitDy=0;exitPerimeter=0;entryX=1;entryY=0.5;entryDx=0;entryDy=0;entryPerimeter=0;endArrow=none;endFill=0;" parent="BsbLC-XJVURWqmNlItD3-70" source="BsbLC-XJVURWqmNlItD3-72" target="BsbLC-XJVURWqmNlItD3-73" edge="1">
                    <mxGeometry relative="1" as="geometry"/>
                </mxCell>
                <mxCell id="BsbLC-XJVURWqmNlItD3-75" style="edgeStyle=orthogonalEdgeStyle;rounded=0;orthogonalLoop=1;jettySize=auto;html=1;exitX=0;exitY=0.5;exitDx=0;exitDy=0;exitPerimeter=0;entryX=0.8;entryY=0;entryDx=0;entryDy=0;entryPerimeter=0;endArrow=none;endFill=0;" parent="BsbLC-XJVURWqmNlItD3-70" source="BsbLC-XJVURWqmNlItD3-76" target="BsbLC-XJVURWqmNlItD3-72" edge="1">
                    <mxGeometry relative="1" as="geometry"/>
                </mxCell>
                <mxCell id="BsbLC-XJVURWqmNlItD3-76" value="10KOhm" style="pointerEvents=1;verticalLabelPosition=bottom;shadow=0;dashed=0;align=center;html=1;verticalAlign=top;shape=mxgraph.electrical.resistors.resistor_1;rotation=0;" parent="BsbLC-XJVURWqmNlItD3-70" vertex="1">
                    <mxGeometry x="252" y="10" width="100" height="20" as="geometry"/>
                </mxCell>
                <mxCell id="BsbLC-XJVURWqmNlItD3-78" style="edgeStyle=orthogonalEdgeStyle;rounded=0;orthogonalLoop=1;jettySize=auto;html=1;exitX=0;exitY=0.5;exitDx=0;exitDy=0;exitPerimeter=0;entryX=0.195;entryY=0;entryDx=0;entryDy=0;entryPerimeter=0;endArrow=none;endFill=0;" parent="1" source="BsbLC-XJVURWqmNlItD3-15" target="BsbLC-XJVURWqmNlItD3-65" edge="1">
                    <mxGeometry relative="1" as="geometry">
                        <Array as="points">
                            <mxPoint x="130" y="660"/>
                            <mxPoint x="130" y="745"/>
                            <mxPoint x="342" y="745"/>
                        </Array>
                    </mxGeometry>
                </mxCell>
                <mxCell id="BsbLC-XJVURWqmNlItD3-79" style="edgeStyle=orthogonalEdgeStyle;rounded=0;orthogonalLoop=1;jettySize=auto;html=1;exitX=0;exitY=0.5;exitDx=0;exitDy=0;exitPerimeter=0;entryX=0.195;entryY=0;entryDx=0;entryDy=0;entryPerimeter=0;endArrow=none;endFill=0;" parent="1" source="BsbLC-XJVURWqmNlItD3-66" target="BsbLC-XJVURWqmNlItD3-72" edge="1">
                    <mxGeometry relative="1" as="geometry">
                        <Array as="points">
                            <mxPoint x="130" y="940"/>
                            <mxPoint x="130" y="1025"/>
                            <mxPoint x="342" y="1025"/>
                        </Array>
                    </mxGeometry>
                </mxCell>
                <mxCell id="BsbLC-XJVURWqmNlItD3-80" style="edgeStyle=orthogonalEdgeStyle;rounded=0;orthogonalLoop=1;jettySize=auto;html=1;exitX=0.8;exitY=0;exitDx=0;exitDy=0;exitPerimeter=0;entryX=0;entryY=0.5;entryDx=0;entryDy=0;endArrow=none;endFill=0;" parent="1" source="BsbLC-XJVURWqmNlItD3-65" target="BsbLC-XJVURWqmNlItD3-49" edge="1">
                    <mxGeometry relative="1" as="geometry"/>
                </mxCell>
                <mxCell id="BsbLC-XJVURWqmNlItD3-81" style="edgeStyle=orthogonalEdgeStyle;rounded=0;orthogonalLoop=1;jettySize=auto;html=1;exitX=0.8;exitY=1;exitDx=0;exitDy=0;exitPerimeter=0;entryX=0;entryY=0.5;entryDx=0;entryDy=0;endArrow=none;endFill=0;" parent="1" source="BsbLC-XJVURWqmNlItD3-65" target="BsbLC-XJVURWqmNlItD3-50" edge="1">
                    <mxGeometry relative="1" as="geometry"/>
                </mxCell>
                <mxCell id="BsbLC-XJVURWqmNlItD3-83" value="" style="pointerEvents=1;verticalLabelPosition=bottom;shadow=0;dashed=0;align=center;html=1;verticalAlign=top;shape=mxgraph.electrical.signal_sources.signal_ground;" parent="1" vertex="1">
                    <mxGeometry x="106.5" y="1580" width="45" height="30" as="geometry"/>
                </mxCell>
                <mxCell id="BsbLC-XJVURWqmNlItD3-86" style="edgeStyle=orthogonalEdgeStyle;rounded=0;orthogonalLoop=1;jettySize=auto;html=1;exitX=0.8;exitY=0;exitDx=0;exitDy=0;exitPerimeter=0;endArrow=none;endFill=0;" parent="1" source="BsbLC-XJVURWqmNlItD3-72" edge="1">
                    <mxGeometry relative="1" as="geometry">
                        <mxPoint x="540" y="1080" as="targetPoint"/>
                        <Array as="points">
                            <mxPoint x="402" y="1080"/>
                            <mxPoint x="540" y="1080"/>
                        </Array>
                    </mxGeometry>
                </mxCell>
                <mxCell id="BsbLC-XJVURWqmNlItD3-87" style="edgeStyle=orthogonalEdgeStyle;rounded=0;orthogonalLoop=1;jettySize=auto;html=1;entryX=0.5;entryY=0;entryDx=0;entryDy=0;entryPerimeter=0;endArrow=none;endFill=0;" parent="1" target="BsbLC-XJVURWqmNlItD3-12" edge="1">
                    <mxGeometry relative="1" as="geometry">
                        <Array as="points">
                            <mxPoint x="920" y="1080"/>
                            <mxPoint x="920" y="170"/>
                            <mxPoint x="129" y="170"/>
                        </Array>
                        <mxPoint x="540" y="1080" as="sourcePoint"/>
                    </mxGeometry>
                </mxCell>
                <mxCell id="BsbLC-XJVURWqmNlItD3-100" value="Aux MPPT" style="swimlane;fontStyle=0;childLayout=stackLayout;horizontal=1;startSize=30;horizontalStack=0;resizeParent=1;resizeParentMax=0;resizeLast=0;collapsible=1;marginBottom=0;" parent="1" vertex="1">
                    <mxGeometry x="700" y="610" width="190" height="90" as="geometry">
                        <mxRectangle x="580" y="260" width="50" height="30" as="alternateBounds"/>
                    </mxGeometry>
                </mxCell>
                <mxCell id="BsbLC-XJVURWqmNlItD3-101" value="REMOTE H" style="text;strokeColor=none;fillColor=none;align=left;verticalAlign=middle;spacingLeft=4;spacingRight=4;overflow=hidden;points=[[0,0.5],[1,0.5]];portConstraint=eastwest;rotatable=0;" parent="BsbLC-XJVURWqmNlItD3-100" vertex="1">
                    <mxGeometry y="30" width="190" height="30" as="geometry"/>
                </mxCell>
                <mxCell id="BsbLC-XJVURWqmNlItD3-102" value="REMOTE L" style="text;strokeColor=none;fillColor=none;align=left;verticalAlign=middle;spacingLeft=4;spacingRight=4;overflow=hidden;points=[[0,0.5],[1,0.5]];portConstraint=eastwest;rotatable=0;" parent="BsbLC-XJVURWqmNlItD3-100" vertex="1">
                    <mxGeometry y="60" width="190" height="30" as="geometry"/>
                </mxCell>
                <mxCell id="BsbLC-XJVURWqmNlItD3-103" style="edgeStyle=orthogonalEdgeStyle;rounded=0;orthogonalLoop=1;jettySize=auto;html=1;exitX=0;exitY=0.5;exitDx=0;exitDy=0;entryX=0;entryY=0.5;entryDx=0;entryDy=0;fontSize=12;endArrow=none;endFill=0;" parent="1" source="BsbLC-XJVURWqmNlItD3-8" target="BsbLC-XJVURWqmNlItD3-102" edge="1">
                    <mxGeometry relative="1" as="geometry"/>
                </mxCell>
                <mxCell id="BsbLC-XJVURWqmNlItD3-104" value="" style="group" parent="1" vertex="1" connectable="0">
                    <mxGeometry x="170" y="1280" width="400" height="280" as="geometry"/>
                </mxCell>
                <mxCell id="BsbLC-XJVURWqmNlItD3-105" value="&lt;span style=&quot;color: rgb(15 , 17 , 17) ; font-family: &amp;#34;amazon ember&amp;#34; , &amp;#34;arial&amp;#34; , sans-serif ; background-color: rgb(255 , 255 , 255)&quot;&gt;Icstation 12V Optocoupler&lt;/span&gt;" style="rounded=0;whiteSpace=wrap;html=1;dashed=1;align=right;verticalAlign=bottom;" parent="BsbLC-XJVURWqmNlItD3-104" vertex="1">
                    <mxGeometry width="400" height="280" as="geometry"/>
                </mxCell>
                <mxCell id="BsbLC-XJVURWqmNlItD3-106" value="" style="verticalLabelPosition=bottom;shadow=0;dashed=0;align=center;html=1;verticalAlign=top;shape=mxgraph.electrical.opto_electronics.opto-coupler;" parent="BsbLC-XJVURWqmNlItD3-104" vertex="1">
                    <mxGeometry x="153" y="100" width="99" height="60" as="geometry"/>
                </mxCell>
                <mxCell id="BsbLC-XJVURWqmNlItD3-107" value="1KOhm" style="pointerEvents=1;verticalLabelPosition=bottom;shadow=0;dashed=0;align=center;html=1;verticalAlign=top;shape=mxgraph.electrical.resistors.resistor_1;rotation=0;" parent="BsbLC-XJVURWqmNlItD3-104" vertex="1">
                    <mxGeometry x="20" y="210" width="100" height="20" as="geometry"/>
                </mxCell>
                <mxCell id="BsbLC-XJVURWqmNlItD3-108" style="edgeStyle=orthogonalEdgeStyle;rounded=0;orthogonalLoop=1;jettySize=auto;html=1;exitX=0.195;exitY=1;exitDx=0;exitDy=0;exitPerimeter=0;entryX=1;entryY=0.5;entryDx=0;entryDy=0;entryPerimeter=0;endArrow=none;endFill=0;" parent="BsbLC-XJVURWqmNlItD3-104" source="BsbLC-XJVURWqmNlItD3-106" target="BsbLC-XJVURWqmNlItD3-107" edge="1">
                    <mxGeometry relative="1" as="geometry"/>
                </mxCell>
                <mxCell id="BsbLC-XJVURWqmNlItD3-109" style="edgeStyle=orthogonalEdgeStyle;rounded=0;orthogonalLoop=1;jettySize=auto;html=1;exitX=0;exitY=0.5;exitDx=0;exitDy=0;exitPerimeter=0;entryX=0.8;entryY=0;entryDx=0;entryDy=0;entryPerimeter=0;endArrow=none;endFill=0;" parent="BsbLC-XJVURWqmNlItD3-104" source="BsbLC-XJVURWqmNlItD3-110" target="BsbLC-XJVURWqmNlItD3-106" edge="1">
                    <mxGeometry relative="1" as="geometry"/>
                </mxCell>
                <mxCell id="BsbLC-XJVURWqmNlItD3-110" value="10KOhm" style="pointerEvents=1;verticalLabelPosition=bottom;shadow=0;dashed=0;align=center;html=1;verticalAlign=top;shape=mxgraph.electrical.resistors.resistor_1;rotation=0;" parent="BsbLC-XJVURWqmNlItD3-104" vertex="1">
                    <mxGeometry x="252" y="10" width="100" height="20" as="geometry"/>
                </mxCell>
                <mxCell id="BsbLC-XJVURWqmNlItD3-111" value="Future" style="swimlane;fontStyle=0;childLayout=stackLayout;horizontal=1;startSize=30;horizontalStack=0;resizeParent=1;resizeParentMax=0;resizeLast=0;collapsible=1;marginBottom=0;" parent="1" vertex="1">
                    <mxGeometry x="700" y="1360" width="190" height="60" as="geometry">
                        <mxRectangle x="580" y="260" width="50" height="30" as="alternateBounds"/>
                    </mxGeometry>
                </mxCell>
                <mxCell id="BsbLC-XJVURWqmNlItD3-112" value="????" style="text;strokeColor=none;fillColor=none;align=left;verticalAlign=middle;spacingLeft=4;spacingRight=4;overflow=hidden;points=[[0,0.5],[1,0.5]];portConstraint=eastwest;rotatable=0;" parent="BsbLC-XJVURWqmNlItD3-111" vertex="1">
                    <mxGeometry y="30" width="190" height="30" as="geometry"/>
                </mxCell>
                <mxCell id="BsbLC-XJVURWqmNlItD3-113" style="edgeStyle=orthogonalEdgeStyle;rounded=0;orthogonalLoop=1;jettySize=auto;html=1;exitX=0;exitY=0.5;exitDx=0;exitDy=0;exitPerimeter=0;entryX=0.5;entryY=0;entryDx=0;entryDy=0;entryPerimeter=0;fontSize=12;endArrow=none;endFill=0;" parent="1" source="BsbLC-XJVURWqmNlItD3-107" target="BsbLC-XJVURWqmNlItD3-83" edge="1">
                    <mxGeometry relative="1" as="geometry"/>
                </mxCell>
                <mxCell id="2WT2x-48ixgIDj2uTJeF-1" value="&lt;h1&gt;&lt;font style=&quot;font-size: 18px&quot;&gt;Input Side&lt;/font&gt;&lt;/h1&gt;&lt;p&gt;REC BMS CE optocoupler is limited rated to a max of 15mA and 62V.&amp;nbsp; The 817 optocoupler has CTR of &amp;gt;100% at &amp;gt;2mA I_f.&amp;nbsp; At 28.8V, three in series would give 9.6 mA and four would give 7.2 mA.&amp;nbsp; Either is acceptable un-modified.&lt;/p&gt;" style="text;html=1;strokeColor=none;fillColor=none;spacing=5;spacingTop=-20;whiteSpace=wrap;overflow=hidden;rounded=0;" parent="1" vertex="1">
                    <mxGeometry x="200" y="255" width="180" height="165" as="geometry"/>
                </mxCell>
                <mxCell id="BsbLC-XJVURWqmNlItD3-84" style="edgeStyle=orthogonalEdgeStyle;rounded=0;orthogonalLoop=1;jettySize=auto;html=1;exitX=0.195;exitY=0;exitDx=0;exitDy=0;exitPerimeter=0;entryX=0;entryY=0.5;entryDx=0;entryDy=0;entryPerimeter=0;endArrow=none;endFill=0;" parent="1" source="BsbLC-XJVURWqmNlItD3-106" target="BsbLC-XJVURWqmNlItD3-73" edge="1">
                    <mxGeometry relative="1" as="geometry">
                        <Array as="points">
                            <mxPoint x="342" y="1305"/>
                            <mxPoint x="130" y="1305"/>
                            <mxPoint x="130" y="1220"/>
                        </Array>
                    </mxGeometry>
                </mxCell>
                <mxCell id="2WT2x-48ixgIDj2uTJeF-5" value="&lt;h1&gt;&lt;font style=&quot;font-size: 18px&quot;&gt;Output Side&lt;/font&gt;&lt;/h1&gt;&lt;p&gt;The 817 optocoupler has max collector current of 50mA. Wiring as shown below will be will below this limit.&lt;/p&gt;" style="text;html=1;strokeColor=none;fillColor=none;spacing=5;spacingTop=-20;whiteSpace=wrap;overflow=hidden;rounded=0;" parent="1" vertex="1">
                    <mxGeometry x="440" y="255" width="130" height="170" as="geometry"/>
                </mxCell>
                <mxCell id="kkuH0vFT5yjaIVFCruNA-5" value="" style="edgeStyle=orthogonalEdgeStyle;rounded=0;orthogonalLoop=1;jettySize=auto;html=1;exitX=0.8;exitY=1;exitDx=0;exitDy=0;exitPerimeter=0;entryX=0;entryY=0.5;entryDx=0;entryDy=0;endArrow=none;endFill=0;" parent="1" source="BsbLC-XJVURWqmNlItD3-72" target="BsbLC-XJVURWqmNlItD3-54" edge="1">
                    <mxGeometry relative="1" as="geometry">
                        <mxPoint x="402.20000000000005" y="1160" as="sourcePoint"/>
                        <mxPoint x="590" y="1135" as="targetPoint"/>
                        <Array as="points">
                            <mxPoint x="402" y="1180"/>
                            <mxPoint x="560" y="1180"/>
                            <mxPoint x="560" y="1135"/>
                        </Array>
                    </mxGeometry>
                </mxCell>
            </root>
        </mxGraphModel>
    </diagram>
    <diagram name="focus-wakespeed" id="K4y7OYDIa_2Qr8XIL1X6">
        <mxGraphModel dx="1332" dy="910" grid="1" gridSize="10" guides="1" tooltips="1" connect="1" arrows="1" fold="1" page="1" pageScale="1" pageWidth="1100" pageHeight="850" background="none" math="0" shadow="0">
            <root>
                <mxCell id="STBlwLwGWw4QHtBeOQfR-0"/>
                <mxCell id="STBlwLwGWw4QHtBeOQfR-1" parent="STBlwLwGWw4QHtBeOQfR-0"/>
                <mxCell id="STBlwLwGWw4QHtBeOQfR-2" value="REC BMS" style="rounded=0;whiteSpace=wrap;html=1;dashed=1;align=left;verticalAlign=bottom;strokeColor=#000000;" parent="STBlwLwGWw4QHtBeOQfR-1" vertex="1">
                    <mxGeometry x="32" y="202" width="148" height="175" as="geometry"/>
                </mxCell>
                <mxCell id="STBlwLwGWw4QHtBeOQfR-3" value="" style="group" parent="STBlwLwGWw4QHtBeOQfR-1" vertex="1" connectable="0">
                    <mxGeometry x="170" y="440" width="400" height="280" as="geometry"/>
                </mxCell>
                <mxCell id="STBlwLwGWw4QHtBeOQfR-4" value="&lt;p style=&quot;box-sizing: border-box ; padding: 0px ; margin: 0px ; font-weight: 400 ; color: rgb(15 , 17 , 17) ; font-family: &amp;#34;amazon ember&amp;#34; , &amp;#34;arial&amp;#34; , sans-serif ; background-color: rgb(255 , 255 , 255) ; line-height: 32px&quot;&gt;&lt;span id=&quot;productTitle&quot; class=&quot;a-size-large product-title-word-break&quot; style=&quot;box-sizing: border-box ; word-break: break-word ; line-height: 32px&quot;&gt;&lt;font style=&quot;font-size: 12px&quot;&gt;Icstation 12V Optocoupler (Modified Resistors)&lt;/font&gt;&lt;/span&gt;&lt;/p&gt;" style="rounded=0;whiteSpace=wrap;html=1;dashed=1;align=right;verticalAlign=bottom;" parent="STBlwLwGWw4QHtBeOQfR-3" vertex="1">
                    <mxGeometry width="400" height="280" as="geometry"/>
                </mxCell>
                <mxCell id="STBlwLwGWw4QHtBeOQfR-5" value="" style="verticalLabelPosition=bottom;shadow=0;dashed=0;align=center;html=1;verticalAlign=top;shape=mxgraph.electrical.opto_electronics.opto-coupler;" parent="STBlwLwGWw4QHtBeOQfR-3" vertex="1">
                    <mxGeometry x="153" y="100" width="99" height="60" as="geometry"/>
                </mxCell>
                <mxCell id="STBlwLwGWw4QHtBeOQfR-6" value="Rin" style="pointerEvents=1;verticalLabelPosition=bottom;shadow=0;dashed=0;align=center;html=1;verticalAlign=top;shape=mxgraph.electrical.resistors.resistor_1;rotation=0;" parent="STBlwLwGWw4QHtBeOQfR-3" vertex="1">
                    <mxGeometry x="20" y="210" width="100" height="20" as="geometry"/>
                </mxCell>
                <mxCell id="STBlwLwGWw4QHtBeOQfR-7" style="edgeStyle=orthogonalEdgeStyle;rounded=0;orthogonalLoop=1;jettySize=auto;html=1;exitX=0.195;exitY=1;exitDx=0;exitDy=0;exitPerimeter=0;entryX=1;entryY=0.5;entryDx=0;entryDy=0;entryPerimeter=0;endArrow=none;endFill=0;" parent="STBlwLwGWw4QHtBeOQfR-3" source="STBlwLwGWw4QHtBeOQfR-5" target="STBlwLwGWw4QHtBeOQfR-6" edge="1">
                    <mxGeometry relative="1" as="geometry"/>
                </mxCell>
                <mxCell id="STBlwLwGWw4QHtBeOQfR-8" style="edgeStyle=orthogonalEdgeStyle;rounded=0;orthogonalLoop=1;jettySize=auto;html=1;exitX=0;exitY=0.5;exitDx=0;exitDy=0;exitPerimeter=0;entryX=0.8;entryY=0;entryDx=0;entryDy=0;entryPerimeter=0;endArrow=none;endFill=0;" parent="STBlwLwGWw4QHtBeOQfR-3" source="STBlwLwGWw4QHtBeOQfR-9" target="STBlwLwGWw4QHtBeOQfR-5" edge="1">
                    <mxGeometry relative="1" as="geometry"/>
                </mxCell>
                <mxCell id="STBlwLwGWw4QHtBeOQfR-9" value="" style="pointerEvents=1;verticalLabelPosition=bottom;shadow=0;dashed=0;align=center;html=1;verticalAlign=top;shape=mxgraph.electrical.resistors.resistor_1;rotation=0;" parent="STBlwLwGWw4QHtBeOQfR-3" vertex="1">
                    <mxGeometry x="252" y="10" width="100" height="20" as="geometry"/>
                </mxCell>
                <mxCell id="STBlwLwGWw4QHtBeOQfR-10" value="" style="verticalLabelPosition=bottom;shadow=0;dashed=0;align=center;html=1;verticalAlign=top;shape=mxgraph.electrical.opto_electronics.opto-coupler;strokeColor=#000000;" parent="STBlwLwGWw4QHtBeOQfR-1" vertex="1">
                    <mxGeometry x="50" y="265" width="99" height="60" as="geometry"/>
                </mxCell>
                <mxCell id="STBlwLwGWw4QHtBeOQfR-11" style="edgeStyle=orthogonalEdgeStyle;rounded=0;orthogonalLoop=1;jettySize=auto;html=1;exitX=0.8;exitY=1;exitDx=0;exitDy=0;exitPerimeter=0;entryX=0.195;entryY=0;entryDx=0;entryDy=0;entryPerimeter=0;endArrow=none;endFill=0;" parent="STBlwLwGWw4QHtBeOQfR-1" source="STBlwLwGWw4QHtBeOQfR-10" target="STBlwLwGWw4QHtBeOQfR-5" edge="1">
                    <mxGeometry relative="1" as="geometry">
                        <Array as="points">
                            <mxPoint x="129" y="470"/>
                            <mxPoint x="342" y="470"/>
                        </Array>
                    </mxGeometry>
                </mxCell>
                <mxCell id="STBlwLwGWw4QHtBeOQfR-12" value="CE" style="edgeLabel;html=1;align=center;verticalAlign=middle;resizable=0;points=[];" parent="STBlwLwGWw4QHtBeOQfR-11" vertex="1" connectable="0">
                    <mxGeometry x="-0.8329" y="2" relative="1" as="geometry">
                        <mxPoint as="offset"/>
                    </mxGeometry>
                </mxCell>
                <mxCell id="STBlwLwGWw4QHtBeOQfR-13" style="edgeStyle=orthogonalEdgeStyle;rounded=0;orthogonalLoop=1;jettySize=auto;html=1;exitX=0.8;exitY=1;exitDx=0;exitDy=0;exitPerimeter=0;entryX=0;entryY=0.5;entryDx=0;entryDy=0;endArrow=none;endFill=0;" parent="STBlwLwGWw4QHtBeOQfR-1" source="STBlwLwGWw4QHtBeOQfR-5" target="STBlwLwGWw4QHtBeOQfR-16" edge="1">
                    <mxGeometry relative="1" as="geometry"/>
                </mxCell>
                <mxCell id="STBlwLwGWw4QHtBeOQfR-14" value="MPPT" style="swimlane;fontStyle=0;childLayout=stackLayout;horizontal=1;startSize=30;horizontalStack=0;resizeParent=1;resizeParentMax=0;resizeLast=0;collapsible=1;marginBottom=0;" parent="STBlwLwGWw4QHtBeOQfR-1" vertex="1">
                    <mxGeometry x="630" y="510" width="190" height="90" as="geometry">
                        <mxRectangle x="580" y="260" width="50" height="30" as="alternateBounds"/>
                    </mxGeometry>
                </mxCell>
                <mxCell id="STBlwLwGWw4QHtBeOQfR-15" value="REMOTE H" style="text;strokeColor=none;fillColor=none;align=left;verticalAlign=middle;spacingLeft=4;spacingRight=4;overflow=hidden;points=[[0,0.5],[1,0.5]];portConstraint=eastwest;rotatable=0;" parent="STBlwLwGWw4QHtBeOQfR-14" vertex="1">
                    <mxGeometry y="30" width="190" height="30" as="geometry"/>
                </mxCell>
                <mxCell id="STBlwLwGWw4QHtBeOQfR-16" value="REMOTE L" style="text;strokeColor=none;fillColor=none;align=left;verticalAlign=middle;spacingLeft=4;spacingRight=4;overflow=hidden;points=[[0,0.5],[1,0.5]];portConstraint=eastwest;rotatable=0;" parent="STBlwLwGWw4QHtBeOQfR-14" vertex="1">
                    <mxGeometry y="60" width="190" height="30" as="geometry"/>
                </mxCell>
                <mxCell id="STBlwLwGWw4QHtBeOQfR-17" style="edgeStyle=orthogonalEdgeStyle;rounded=0;orthogonalLoop=1;jettySize=auto;html=1;exitX=0.5;exitY=0;exitDx=0;exitDy=0;exitPerimeter=0;entryX=0.8;entryY=0;entryDx=0;entryDy=0;entryPerimeter=0;endArrow=none;endFill=0;strokeColor=#000000;" parent="STBlwLwGWw4QHtBeOQfR-1" source="STBlwLwGWw4QHtBeOQfR-19" target="STBlwLwGWw4QHtBeOQfR-10" edge="1">
                    <mxGeometry relative="1" as="geometry"/>
                </mxCell>
                <mxCell id="STBlwLwGWw4QHtBeOQfR-18" value="CE+" style="edgeLabel;html=1;align=center;verticalAlign=middle;resizable=0;points=[];" parent="STBlwLwGWw4QHtBeOQfR-17" vertex="1" connectable="0">
                    <mxGeometry x="0.494" relative="1" as="geometry">
                        <mxPoint as="offset"/>
                    </mxGeometry>
                </mxCell>
                <mxCell id="STBlwLwGWw4QHtBeOQfR-19" value="V&lt;span style=&quot;font-size: 20px&quot;&gt;cc (~28.8V)&lt;/span&gt;" style="verticalLabelPosition=top;verticalAlign=bottom;shape=mxgraph.electrical.signal_sources.vdd;shadow=0;dashed=0;align=center;strokeWidth=1;fontSize=24;html=1;flipV=1;strokeColor=#EA6B66;" parent="STBlwLwGWw4QHtBeOQfR-1" vertex="1">
                    <mxGeometry x="99" y="120" width="60" height="40" as="geometry"/>
                </mxCell>
                <mxCell id="STBlwLwGWw4QHtBeOQfR-20" style="edgeStyle=orthogonalEdgeStyle;rounded=0;orthogonalLoop=1;jettySize=auto;html=1;exitX=0;exitY=0.5;exitDx=0;exitDy=0;entryX=0.8;entryY=0;entryDx=0;entryDy=0;entryPerimeter=0;endArrow=none;endFill=0;" parent="STBlwLwGWw4QHtBeOQfR-1" source="STBlwLwGWw4QHtBeOQfR-15" target="STBlwLwGWw4QHtBeOQfR-5" edge="1">
                    <mxGeometry relative="1" as="geometry"/>
                </mxCell>
                <mxCell id="STBlwLwGWw4QHtBeOQfR-21" value="Multiplus" style="swimlane;fontStyle=0;childLayout=stackLayout;horizontal=1;startSize=30;horizontalStack=0;resizeParent=1;resizeParentMax=0;resizeLast=0;collapsible=1;marginBottom=0;" parent="STBlwLwGWw4QHtBeOQfR-1" vertex="1">
                    <mxGeometry x="630" y="790" width="190" height="90" as="geometry">
                        <mxRectangle x="580" y="260" width="50" height="30" as="alternateBounds"/>
                    </mxGeometry>
                </mxCell>
                <mxCell id="STBlwLwGWw4QHtBeOQfR-22" value="AUX +" style="text;strokeColor=none;fillColor=none;align=left;verticalAlign=middle;spacingLeft=4;spacingRight=4;overflow=hidden;points=[[0,0.5],[1,0.5]];portConstraint=eastwest;rotatable=0;" parent="STBlwLwGWw4QHtBeOQfR-21" vertex="1">
                    <mxGeometry y="30" width="190" height="30" as="geometry"/>
                </mxCell>
                <mxCell id="STBlwLwGWw4QHtBeOQfR-23" value="AUX -" style="text;strokeColor=none;fillColor=none;align=left;verticalAlign=middle;spacingLeft=4;spacingRight=4;overflow=hidden;points=[[0,0.5],[1,0.5]];portConstraint=eastwest;rotatable=0;" parent="STBlwLwGWw4QHtBeOQfR-21" vertex="1">
                    <mxGeometry y="60" width="190" height="30" as="geometry"/>
                </mxCell>
                <mxCell id="STBlwLwGWw4QHtBeOQfR-24" value="Wakespeed" style="swimlane;fontStyle=0;childLayout=stackLayout;horizontal=1;startSize=30;horizontalStack=0;resizeParent=1;resizeParentMax=0;resizeLast=0;collapsible=1;marginBottom=0;strokeColor=#EA6B66;" parent="STBlwLwGWw4QHtBeOQfR-1" vertex="1">
                    <mxGeometry x="630" y="1090" width="190" height="60" as="geometry">
                        <mxRectangle x="580" y="260" width="50" height="30" as="alternateBounds"/>
                    </mxGeometry>
                </mxCell>
                <mxCell id="STBlwLwGWw4QHtBeOQfR-25" value="FEATURE IN" style="text;strokeColor=none;fillColor=none;align=left;verticalAlign=middle;spacingLeft=4;spacingRight=4;overflow=hidden;points=[[0,0.5],[1,0.5]];portConstraint=eastwest;rotatable=0;" parent="STBlwLwGWw4QHtBeOQfR-24" vertex="1">
                    <mxGeometry y="30" width="190" height="30" as="geometry"/>
                </mxCell>
                <mxCell id="STBlwLwGWw4QHtBeOQfR-26" value="" style="group" parent="STBlwLwGWw4QHtBeOQfR-1" vertex="1" connectable="0">
                    <mxGeometry x="170" y="720" width="400" height="280" as="geometry"/>
                </mxCell>
                <mxCell id="STBlwLwGWw4QHtBeOQfR-27" value="&lt;div style=&quot;&quot;&gt;&lt;span style=&quot;background-color: rgb(255 , 255 , 255) ; color: rgb(15 , 17 , 17) ; font-family: &amp;quot;amazon ember&amp;quot; , &amp;quot;arial&amp;quot; , sans-serif&quot;&gt;Icstation 12V Optocoupler (Modified Resistors)&lt;/span&gt;&lt;/div&gt;" style="rounded=0;whiteSpace=wrap;html=1;dashed=1;align=right;verticalAlign=bottom;" parent="STBlwLwGWw4QHtBeOQfR-26" vertex="1">
                    <mxGeometry width="400" height="280" as="geometry"/>
                </mxCell>
                <mxCell id="STBlwLwGWw4QHtBeOQfR-28" value="" style="verticalLabelPosition=bottom;shadow=0;dashed=0;align=center;html=1;verticalAlign=top;shape=mxgraph.electrical.opto_electronics.opto-coupler;" parent="STBlwLwGWw4QHtBeOQfR-26" vertex="1">
                    <mxGeometry x="153" y="100" width="99" height="60" as="geometry"/>
                </mxCell>
                <mxCell id="STBlwLwGWw4QHtBeOQfR-29" value="Rin" style="pointerEvents=1;verticalLabelPosition=bottom;shadow=0;dashed=0;align=center;html=1;verticalAlign=top;shape=mxgraph.electrical.resistors.resistor_1;rotation=0;" parent="STBlwLwGWw4QHtBeOQfR-26" vertex="1">
                    <mxGeometry x="20" y="210" width="100" height="20" as="geometry"/>
                </mxCell>
                <mxCell id="STBlwLwGWw4QHtBeOQfR-30" style="edgeStyle=orthogonalEdgeStyle;rounded=0;orthogonalLoop=1;jettySize=auto;html=1;exitX=0.195;exitY=1;exitDx=0;exitDy=0;exitPerimeter=0;entryX=1;entryY=0.5;entryDx=0;entryDy=0;entryPerimeter=0;endArrow=none;endFill=0;" parent="STBlwLwGWw4QHtBeOQfR-26" source="STBlwLwGWw4QHtBeOQfR-28" target="STBlwLwGWw4QHtBeOQfR-29" edge="1">
                    <mxGeometry relative="1" as="geometry"/>
                </mxCell>
                <mxCell id="STBlwLwGWw4QHtBeOQfR-31" style="edgeStyle=orthogonalEdgeStyle;rounded=0;orthogonalLoop=1;jettySize=auto;html=1;exitX=0;exitY=0.5;exitDx=0;exitDy=0;exitPerimeter=0;entryX=0.8;entryY=0;entryDx=0;entryDy=0;entryPerimeter=0;endArrow=none;endFill=0;" parent="STBlwLwGWw4QHtBeOQfR-26" source="STBlwLwGWw4QHtBeOQfR-32" target="STBlwLwGWw4QHtBeOQfR-28" edge="1">
                    <mxGeometry relative="1" as="geometry"/>
                </mxCell>
                <mxCell id="STBlwLwGWw4QHtBeOQfR-32" value="" style="pointerEvents=1;verticalLabelPosition=bottom;shadow=0;dashed=0;align=center;html=1;verticalAlign=top;shape=mxgraph.electrical.resistors.resistor_1;rotation=0;" parent="STBlwLwGWw4QHtBeOQfR-26" vertex="1">
                    <mxGeometry x="252" y="10" width="100" height="20" as="geometry"/>
                </mxCell>
                <mxCell id="STBlwLwGWw4QHtBeOQfR-33" value="" style="group;strokeColor=#EA6B66;fillColor=#EA6B66;" parent="STBlwLwGWw4QHtBeOQfR-1" vertex="1" connectable="0">
                    <mxGeometry x="170" y="1000" width="400" height="280" as="geometry"/>
                </mxCell>
                <mxCell id="STBlwLwGWw4QHtBeOQfR-34" value="&lt;span style=&quot;font-family: &amp;#34;amazon ember&amp;#34; , &amp;#34;arial&amp;#34; , sans-serif ; background-color: rgb(255 , 255 , 255)&quot;&gt;&lt;font color=&quot;#ea6b66&quot;&gt;Icstation 12V Optocoupler (Modified Resistors)&lt;/font&gt;&lt;/span&gt;" style="rounded=0;whiteSpace=wrap;html=1;dashed=1;align=right;verticalAlign=bottom;" parent="STBlwLwGWw4QHtBeOQfR-33" vertex="1">
                    <mxGeometry width="400" height="280" as="geometry"/>
                </mxCell>
                <mxCell id="STBlwLwGWw4QHtBeOQfR-35" value="" style="verticalLabelPosition=bottom;shadow=0;dashed=0;align=center;html=1;verticalAlign=top;shape=mxgraph.electrical.opto_electronics.opto-coupler;strokeColor=#EA6B66;" parent="STBlwLwGWw4QHtBeOQfR-33" vertex="1">
                    <mxGeometry x="153" y="100" width="99" height="60" as="geometry"/>
                </mxCell>
                <mxCell id="STBlwLwGWw4QHtBeOQfR-36" value="Rout" style="pointerEvents=1;verticalLabelPosition=bottom;shadow=0;dashed=0;align=center;html=1;verticalAlign=top;shape=mxgraph.electrical.resistors.resistor_1;rotation=0;strokeColor=#EA6B66;" parent="STBlwLwGWw4QHtBeOQfR-33" vertex="1">
                    <mxGeometry x="20" y="210" width="100" height="20" as="geometry"/>
                </mxCell>
                <mxCell id="STBlwLwGWw4QHtBeOQfR-37" style="edgeStyle=orthogonalEdgeStyle;rounded=0;orthogonalLoop=1;jettySize=auto;html=1;exitX=0.195;exitY=1;exitDx=0;exitDy=0;exitPerimeter=0;entryX=1;entryY=0.5;entryDx=0;entryDy=0;entryPerimeter=0;endArrow=none;endFill=0;strokeColor=#EA6B66;" parent="STBlwLwGWw4QHtBeOQfR-33" source="STBlwLwGWw4QHtBeOQfR-35" target="STBlwLwGWw4QHtBeOQfR-36" edge="1">
                    <mxGeometry relative="1" as="geometry"/>
                </mxCell>
                <mxCell id="STBlwLwGWw4QHtBeOQfR-38" style="edgeStyle=orthogonalEdgeStyle;rounded=0;orthogonalLoop=1;jettySize=auto;html=1;exitX=0;exitY=0.5;exitDx=0;exitDy=0;exitPerimeter=0;entryX=0.8;entryY=0;entryDx=0;entryDy=0;entryPerimeter=0;endArrow=none;endFill=0;strokeColor=#EA6B66;" parent="STBlwLwGWw4QHtBeOQfR-33" source="STBlwLwGWw4QHtBeOQfR-39" target="STBlwLwGWw4QHtBeOQfR-35" edge="1">
                    <mxGeometry relative="1" as="geometry"/>
                </mxCell>
                <mxCell id="STBlwLwGWw4QHtBeOQfR-39" value="&lt;font color=&quot;#ea6b66&quot;&gt;Rout&lt;/font&gt;" style="pointerEvents=1;verticalLabelPosition=bottom;shadow=0;dashed=0;align=center;html=1;verticalAlign=top;shape=mxgraph.electrical.resistors.resistor_1;rotation=0;strokeColor=#EA6B66;" parent="STBlwLwGWw4QHtBeOQfR-33" vertex="1">
                    <mxGeometry x="252" y="10" width="100" height="20" as="geometry"/>
                </mxCell>
                <mxCell id="STBlwLwGWw4QHtBeOQfR-40" style="edgeStyle=orthogonalEdgeStyle;rounded=0;orthogonalLoop=1;jettySize=auto;html=1;exitX=0;exitY=0.5;exitDx=0;exitDy=0;exitPerimeter=0;entryX=0.195;entryY=0;entryDx=0;entryDy=0;entryPerimeter=0;endArrow=none;endFill=0;" parent="STBlwLwGWw4QHtBeOQfR-1" source="STBlwLwGWw4QHtBeOQfR-6" target="STBlwLwGWw4QHtBeOQfR-28" edge="1">
                    <mxGeometry relative="1" as="geometry">
                        <Array as="points">
                            <mxPoint x="130" y="660"/>
                            <mxPoint x="130" y="745"/>
                            <mxPoint x="342" y="745"/>
                        </Array>
                    </mxGeometry>
                </mxCell>
                <mxCell id="STBlwLwGWw4QHtBeOQfR-41" style="edgeStyle=orthogonalEdgeStyle;rounded=0;orthogonalLoop=1;jettySize=auto;html=1;exitX=0;exitY=0.5;exitDx=0;exitDy=0;exitPerimeter=0;entryX=0.195;entryY=0;entryDx=0;entryDy=0;entryPerimeter=0;endArrow=none;endFill=0;strokeColor=#000000;" parent="STBlwLwGWw4QHtBeOQfR-1" source="STBlwLwGWw4QHtBeOQfR-29" target="STBlwLwGWw4QHtBeOQfR-35" edge="1">
                    <mxGeometry relative="1" as="geometry">
                        <Array as="points">
                            <mxPoint x="130" y="940"/>
                            <mxPoint x="130" y="1025"/>
                            <mxPoint x="342" y="1025"/>
                        </Array>
                    </mxGeometry>
                </mxCell>
                <mxCell id="STBlwLwGWw4QHtBeOQfR-42" style="edgeStyle=orthogonalEdgeStyle;rounded=0;orthogonalLoop=1;jettySize=auto;html=1;exitX=0.8;exitY=0;exitDx=0;exitDy=0;exitPerimeter=0;entryX=0;entryY=0.5;entryDx=0;entryDy=0;endArrow=none;endFill=0;" parent="STBlwLwGWw4QHtBeOQfR-1" source="STBlwLwGWw4QHtBeOQfR-28" target="STBlwLwGWw4QHtBeOQfR-22" edge="1">
                    <mxGeometry relative="1" as="geometry"/>
                </mxCell>
                <mxCell id="STBlwLwGWw4QHtBeOQfR-43" style="edgeStyle=orthogonalEdgeStyle;rounded=0;orthogonalLoop=1;jettySize=auto;html=1;exitX=0.8;exitY=1;exitDx=0;exitDy=0;exitPerimeter=0;entryX=0;entryY=0.5;entryDx=0;entryDy=0;endArrow=none;endFill=0;" parent="STBlwLwGWw4QHtBeOQfR-1" source="STBlwLwGWw4QHtBeOQfR-28" target="STBlwLwGWw4QHtBeOQfR-23" edge="1">
                    <mxGeometry relative="1" as="geometry"/>
                </mxCell>
                <mxCell id="STBlwLwGWw4QHtBeOQfR-44" style="edgeStyle=orthogonalEdgeStyle;rounded=0;orthogonalLoop=1;jettySize=auto;html=1;exitX=0.8;exitY=1;exitDx=0;exitDy=0;exitPerimeter=0;entryX=0;entryY=0.5;entryDx=0;entryDy=0;endArrow=none;endFill=0;strokeColor=#EA6B66;" parent="STBlwLwGWw4QHtBeOQfR-1" source="STBlwLwGWw4QHtBeOQfR-35" target="STBlwLwGWw4QHtBeOQfR-25" edge="1">
                    <mxGeometry relative="1" as="geometry"/>
                </mxCell>
                <mxCell id="STBlwLwGWw4QHtBeOQfR-45" value="" style="pointerEvents=1;verticalLabelPosition=bottom;shadow=0;dashed=0;align=center;html=1;verticalAlign=top;shape=mxgraph.electrical.signal_sources.signal_ground;" parent="STBlwLwGWw4QHtBeOQfR-1" vertex="1">
                    <mxGeometry x="106.5" y="1580" width="45" height="30" as="geometry"/>
                </mxCell>
                <mxCell id="STBlwLwGWw4QHtBeOQfR-46" style="edgeStyle=orthogonalEdgeStyle;rounded=0;orthogonalLoop=1;jettySize=auto;html=1;exitX=0.8;exitY=0;exitDx=0;exitDy=0;exitPerimeter=0;endArrow=none;endFill=0;strokeColor=#EA6B66;" parent="STBlwLwGWw4QHtBeOQfR-1" source="STBlwLwGWw4QHtBeOQfR-35" edge="1">
                    <mxGeometry relative="1" as="geometry">
                        <mxPoint x="540" y="1080" as="targetPoint"/>
                        <Array as="points">
                            <mxPoint x="402" y="1080"/>
                            <mxPoint x="540" y="1080"/>
                        </Array>
                    </mxGeometry>
                </mxCell>
                <mxCell id="STBlwLwGWw4QHtBeOQfR-47" style="edgeStyle=orthogonalEdgeStyle;rounded=0;orthogonalLoop=1;jettySize=auto;html=1;exitX=1;exitY=0.5;exitDx=0;exitDy=0;exitPerimeter=0;entryX=0.5;entryY=0;entryDx=0;entryDy=0;entryPerimeter=0;endArrow=none;endFill=0;strokeColor=#EA6B66;" parent="STBlwLwGWw4QHtBeOQfR-1" source="STBlwLwGWw4QHtBeOQfR-39" target="STBlwLwGWw4QHtBeOQfR-19" edge="1">
                    <mxGeometry relative="1" as="geometry">
                        <Array as="points">
                            <mxPoint x="850" y="1020"/>
                            <mxPoint x="850" y="170"/>
                            <mxPoint x="129" y="170"/>
                        </Array>
                    </mxGeometry>
                </mxCell>
                <mxCell id="STBlwLwGWw4QHtBeOQfR-48" value="Aux MPPT" style="swimlane;fontStyle=0;childLayout=stackLayout;horizontal=1;startSize=30;horizontalStack=0;resizeParent=1;resizeParentMax=0;resizeLast=0;collapsible=1;marginBottom=0;" parent="STBlwLwGWw4QHtBeOQfR-1" vertex="1">
                    <mxGeometry x="630" y="610" width="190" height="90" as="geometry">
                        <mxRectangle x="580" y="260" width="50" height="30" as="alternateBounds"/>
                    </mxGeometry>
                </mxCell>
                <mxCell id="STBlwLwGWw4QHtBeOQfR-49" value="REMOTE H" style="text;strokeColor=none;fillColor=none;align=left;verticalAlign=middle;spacingLeft=4;spacingRight=4;overflow=hidden;points=[[0,0.5],[1,0.5]];portConstraint=eastwest;rotatable=0;" parent="STBlwLwGWw4QHtBeOQfR-48" vertex="1">
                    <mxGeometry y="30" width="190" height="30" as="geometry"/>
                </mxCell>
                <mxCell id="STBlwLwGWw4QHtBeOQfR-50" value="REMOTE L" style="text;strokeColor=none;fillColor=none;align=left;verticalAlign=middle;spacingLeft=4;spacingRight=4;overflow=hidden;points=[[0,0.5],[1,0.5]];portConstraint=eastwest;rotatable=0;" parent="STBlwLwGWw4QHtBeOQfR-48" vertex="1">
                    <mxGeometry y="60" width="190" height="30" as="geometry"/>
                </mxCell>
                <mxCell id="STBlwLwGWw4QHtBeOQfR-51" style="edgeStyle=orthogonalEdgeStyle;rounded=0;orthogonalLoop=1;jettySize=auto;html=1;exitX=0;exitY=0.5;exitDx=0;exitDy=0;entryX=0;entryY=0.5;entryDx=0;entryDy=0;fontSize=12;endArrow=none;endFill=0;" parent="STBlwLwGWw4QHtBeOQfR-1" source="STBlwLwGWw4QHtBeOQfR-16" target="STBlwLwGWw4QHtBeOQfR-50" edge="1">
                    <mxGeometry relative="1" as="geometry"/>
                </mxCell>
                <mxCell id="STBlwLwGWw4QHtBeOQfR-52" value="" style="group" parent="STBlwLwGWw4QHtBeOQfR-1" vertex="1" connectable="0">
                    <mxGeometry x="170" y="1280" width="400" height="280" as="geometry"/>
                </mxCell>
                <mxCell id="STBlwLwGWw4QHtBeOQfR-53" value="&lt;span style=&quot;color: rgb(15 , 17 , 17) ; font-family: &amp;#34;amazon ember&amp;#34; , &amp;#34;arial&amp;#34; , sans-serif ; background-color: rgb(255 , 255 , 255)&quot;&gt;Icstation 12V Optocoupler (Modified Resistors)&lt;/span&gt;" style="rounded=0;whiteSpace=wrap;html=1;dashed=1;align=right;verticalAlign=bottom;" parent="STBlwLwGWw4QHtBeOQfR-52" vertex="1">
                    <mxGeometry width="400" height="280" as="geometry"/>
                </mxCell>
                <mxCell id="STBlwLwGWw4QHtBeOQfR-54" value="" style="verticalLabelPosition=bottom;shadow=0;dashed=0;align=center;html=1;verticalAlign=top;shape=mxgraph.electrical.opto_electronics.opto-coupler;" parent="STBlwLwGWw4QHtBeOQfR-52" vertex="1">
                    <mxGeometry x="153" y="100" width="99" height="60" as="geometry"/>
                </mxCell>
                <mxCell id="STBlwLwGWw4QHtBeOQfR-55" value="Rout" style="pointerEvents=1;verticalLabelPosition=bottom;shadow=0;dashed=0;align=center;html=1;verticalAlign=top;shape=mxgraph.electrical.resistors.resistor_1;rotation=0;" parent="STBlwLwGWw4QHtBeOQfR-52" vertex="1">
                    <mxGeometry x="20" y="210" width="100" height="20" as="geometry"/>
                </mxCell>
                <mxCell id="STBlwLwGWw4QHtBeOQfR-56" style="edgeStyle=orthogonalEdgeStyle;rounded=0;orthogonalLoop=1;jettySize=auto;html=1;exitX=0.195;exitY=1;exitDx=0;exitDy=0;exitPerimeter=0;entryX=1;entryY=0.5;entryDx=0;entryDy=0;entryPerimeter=0;endArrow=none;endFill=0;" parent="STBlwLwGWw4QHtBeOQfR-52" source="STBlwLwGWw4QHtBeOQfR-54" target="STBlwLwGWw4QHtBeOQfR-55" edge="1">
                    <mxGeometry relative="1" as="geometry"/>
                </mxCell>
                <mxCell id="STBlwLwGWw4QHtBeOQfR-57" style="edgeStyle=orthogonalEdgeStyle;rounded=0;orthogonalLoop=1;jettySize=auto;html=1;exitX=0;exitY=0.5;exitDx=0;exitDy=0;exitPerimeter=0;entryX=0.8;entryY=0;entryDx=0;entryDy=0;entryPerimeter=0;endArrow=none;endFill=0;" parent="STBlwLwGWw4QHtBeOQfR-52" source="STBlwLwGWw4QHtBeOQfR-58" target="STBlwLwGWw4QHtBeOQfR-54" edge="1">
                    <mxGeometry relative="1" as="geometry"/>
                </mxCell>
                <mxCell id="STBlwLwGWw4QHtBeOQfR-58" value="Rout" style="pointerEvents=1;verticalLabelPosition=bottom;shadow=0;dashed=0;align=center;html=1;verticalAlign=top;shape=mxgraph.electrical.resistors.resistor_1;rotation=0;" parent="STBlwLwGWw4QHtBeOQfR-52" vertex="1">
                    <mxGeometry x="252" y="10" width="100" height="20" as="geometry"/>
                </mxCell>
                <mxCell id="STBlwLwGWw4QHtBeOQfR-59" value="Future" style="swimlane;fontStyle=0;childLayout=stackLayout;horizontal=1;startSize=30;horizontalStack=0;resizeParent=1;resizeParentMax=0;resizeLast=0;collapsible=1;marginBottom=0;" parent="STBlwLwGWw4QHtBeOQfR-1" vertex="1">
                    <mxGeometry x="630" y="1360" width="190" height="60" as="geometry">
                        <mxRectangle x="580" y="260" width="50" height="30" as="alternateBounds"/>
                    </mxGeometry>
                </mxCell>
                <mxCell id="STBlwLwGWw4QHtBeOQfR-60" value="????" style="text;strokeColor=none;fillColor=none;align=left;verticalAlign=middle;spacingLeft=4;spacingRight=4;overflow=hidden;points=[[0,0.5],[1,0.5]];portConstraint=eastwest;rotatable=0;" parent="STBlwLwGWw4QHtBeOQfR-59" vertex="1">
                    <mxGeometry y="30" width="190" height="30" as="geometry"/>
                </mxCell>
                <mxCell id="STBlwLwGWw4QHtBeOQfR-61" style="edgeStyle=orthogonalEdgeStyle;rounded=0;orthogonalLoop=1;jettySize=auto;html=1;exitX=0;exitY=0.5;exitDx=0;exitDy=0;exitPerimeter=0;entryX=0.5;entryY=0;entryDx=0;entryDy=0;entryPerimeter=0;fontSize=12;endArrow=none;endFill=0;" parent="STBlwLwGWw4QHtBeOQfR-1" source="STBlwLwGWw4QHtBeOQfR-55" target="STBlwLwGWw4QHtBeOQfR-45" edge="1">
                    <mxGeometry relative="1" as="geometry"/>
                </mxCell>
                <mxCell id="STBlwLwGWw4QHtBeOQfR-62" value="&lt;h1&gt;&lt;font style=&quot;font-size: 18px&quot;&gt;Input Side&lt;/font&gt;&lt;/h1&gt;&lt;p&gt;REC BMS CE optocoupler is limited rated to a max of 15mA and 62V.&amp;nbsp; The 817 optocoupler has CTR of &amp;gt;100% at &amp;gt;2mA I_f.&amp;nbsp; We'll shoot for Rin=28.8/5mA/4&lt;/p&gt;" style="text;html=1;strokeColor=none;fillColor=none;spacing=5;spacingTop=-20;whiteSpace=wrap;overflow=hidden;rounded=0;" parent="STBlwLwGWw4QHtBeOQfR-1" vertex="1">
                    <mxGeometry x="200" y="255" width="130" height="170" as="geometry"/>
                </mxCell>
                <mxCell id="STBlwLwGWw4QHtBeOQfR-63" style="edgeStyle=orthogonalEdgeStyle;rounded=0;orthogonalLoop=1;jettySize=auto;html=1;exitX=0.195;exitY=0;exitDx=0;exitDy=0;exitPerimeter=0;entryX=0;entryY=0.5;entryDx=0;entryDy=0;entryPerimeter=0;endArrow=none;endFill=0;strokeColor=#000000;" parent="STBlwLwGWw4QHtBeOQfR-1" source="STBlwLwGWw4QHtBeOQfR-54" target="STBlwLwGWw4QHtBeOQfR-36" edge="1">
                    <mxGeometry relative="1" as="geometry">
                        <Array as="points">
                            <mxPoint x="342" y="1305"/>
                            <mxPoint x="130" y="1305"/>
                            <mxPoint x="130" y="1220"/>
                        </Array>
                    </mxGeometry>
                </mxCell>
                <mxCell id="STBlwLwGWw4QHtBeOQfR-64" value="&lt;h1&gt;&lt;font style=&quot;font-size: 18px&quot;&gt;Output Side&lt;/font&gt;&lt;/h1&gt;&lt;p&gt;The 817 optocoupler has max collector current of 50mA. We'll shoot for Rout=28.8/25mA or higher.&amp;nbsp;&amp;nbsp;&lt;/p&gt;" style="text;html=1;strokeColor=none;fillColor=none;spacing=5;spacingTop=-20;whiteSpace=wrap;overflow=hidden;rounded=0;" parent="STBlwLwGWw4QHtBeOQfR-1" vertex="1">
                    <mxGeometry x="440" y="255" width="130" height="170" as="geometry"/>
                </mxCell>
            </root>
        </mxGraphModel>
    </diagram>
</mxfile>